#N canvas 574 339 1130 666 12;
#X obj 475 24 inlet~;
#X text 924 151 lowpass;
#X text 261 151 highpass;
#X text 567 156 midrange;
#X obj 133 589 *~;
#X obj 474 587 *~;
#X obj 811 583 *~;
#X obj 475 183 hv.filter bandpass2 1337 0.4;
#X obj 475 217 hv.filter lowpass 20000 0.12;
#X obj 475 246 hv.filter highpass 20 0.2;
#N canvas 0 50 450 250 (subpatch) 0;
#X text 0 0 plugdatainfo <?xml version="1.0" encoding="UTF-8"?> <PlugDataInfo><InfoObj ID="16.t....zB.........A....." Updated="0" Segmented="0" Path="32.................F....H....fA....B....v....."/><InfoObj ID="16.8....vC.........B....." Updated="0" Segmented="0" Path="32.................H....T.....B....E....7....."/><InfoObj ID="16.6....3C.........A....." Updated="0" Segmented="0" Path="32.................V....jB...fE....o....vB...."/></PlugDataInfo>;
#X coords 0 1 100 -1 1 1 1;
#X restore 0 0 graph;
#X obj 166 409 + 1;
#X obj 158 515 spigot;
#X obj 229 516 spigot;
#X obj 183 486 <= 1;
#X obj 254 484 > 1, f 4;
#X obj 230 545 *;
#X obj 848 409 + 1;
#X obj 840 515 spigot;
#X obj 911 516 spigot;
#X obj 865 486 <= 1;
#X obj 936 484 > 1, f 4;
#X obj 912 545 *;
#X obj 509 349 + 1;
#X obj 501 455 spigot;
#X obj 572 456 spigot;
#X obj 526 426 <= 1;
#X obj 597 424 > 1, f 4;
#X obj 573 485 *;
#X obj 811 327 hv.filter allpass 20 0.2;
#X obj 131 304 hv.filter allpass 20 0.2;
#X obj 132 189 hv.filter highpass 1337 0.3;
#X obj 812 183 hv.filter lowpass 1037 0.4;
#X obj 131 271 hv.filter allpass 48000 0.12;
#X obj 811 291 hv.filter allpass 48000 0.12;
#X obj 206 233 r srate;
#X obj 891 244 r srate;
#X obj 501 525 + 0.08;
#X obj 803 63 samplerate~;
#X obj 803 95 s srate;
#X obj 803 29 loadbang;
#X obj 1265 72 t a;
#X obj 1265 44 inlet;
#X obj 1265 169 hv.dispatch \$0 midfreq 1337;
#X obj 1265 135 hv.dispatch \$0 midvol 0.5;
#X obj 1265 99 hv.dispatch \$0 highvol 0.5;
#X obj 1265 202 hv.dispatch \$0 lowvol 0.5;
#X obj 1265 237 hv.dispatch \$0 midq 0.4;
#X obj 509 318 r \$0mid-vol;
#X obj 553 123 r \$0-midfreq;
#X obj 631 151 r \$0-midq;
#X obj 166 380 r \$0-highvol;
#X obj 848 375 r \$0-lowvol;
#X obj 133 626 outlet~;
#X obj 474 625 outlet~;
#X obj 811 626 outlet~;
#X connect 0 0 7 0;
#X connect 0 0 31 0;
#X connect 0 0 32 0;
#X connect 4 0 53 0;
#X connect 5 0 54 0;
#X connect 6 0 55 0;
#X connect 7 0 8 0;
#X connect 8 0 9 0;
#X connect 9 0 5 0;
#X connect 11 0 12 0;
#X connect 11 0 13 0;
#X connect 11 0 14 0;
#X connect 11 0 15 0;
#X connect 12 0 4 1;
#X connect 13 0 16 0;
#X connect 13 0 16 1;
#X connect 14 0 12 1;
#X connect 15 0 13 1;
#X connect 16 0 4 1;
#X connect 17 0 18 0;
#X connect 17 0 19 0;
#X connect 17 0 20 0;
#X connect 17 0 21 0;
#X connect 18 0 6 1;
#X connect 19 0 22 0;
#X connect 19 0 22 1;
#X connect 20 0 18 1;
#X connect 21 0 19 1;
#X connect 22 0 6 1;
#X connect 23 0 24 0;
#X connect 23 0 25 0;
#X connect 23 0 26 0;
#X connect 23 0 27 0;
#X connect 24 0 37 0;
#X connect 25 0 28 0;
#X connect 25 0 28 1;
#X connect 26 0 24 1;
#X connect 27 0 25 1;
#X connect 28 0 37 0;
#X connect 29 0 6 0;
#X connect 30 0 4 0;
#X connect 31 0 33 0;
#X connect 32 0 34 0;
#X connect 33 0 30 0;
#X connect 34 0 29 0;
#X connect 35 0 33 1;
#X connect 36 0 34 1;
#X connect 37 0 5 1;
#X connect 38 0 39 0;
#X connect 40 0 38 0;
#X connect 41 0 45 0;
#X connect 42 0 41 0;
#X connect 43 0 46 0;
#X connect 44 0 43 0;
#X connect 45 0 44 0;
#X connect 46 0 47 0;
#X connect 48 0 23 0;
#X connect 49 0 7 1;
#X connect 50 0 7 2;
#X connect 51 0 11 0;
#X connect 52 0 17 0;
