#N canvas 574 339 1130 666 12;
#X obj 159 44 inlet~;
#X obj 613 904 outlet~;
#X text 924 151 lowpass;
#X text 261 151 highpass;
#X text 567 156 midrange;
#X obj 133 589 *~;
#X obj 475 589 *~;
#X obj 821 584 *~;
#X obj 475 186 hv.filter bandpass2 1337 0.4;
#X obj 133 626 throw~ out\$1;
#X obj 475 627 throw~ out\$1;
#X obj 821 627 throw~ out\$1;
#X obj 612 653 catch~ out\$1;
#X obj 476 219 hv.filter lowpass 20000 0.12;
#X obj 476 248 hv.filter highpass 20 0.2;
#N canvas 0 50 450 250 (subpatch) 0;
#X text 0 0 plugdatainfo <?xml version="1.0" encoding="UTF-8"?> <PlugDataInfo><InfoObj ID="16.3....bC.........A....." Updated="0" Segmented="0" Path="32.................F....H....fA....B....v....."/><InfoObj ID="16.8....vC.........B....." Updated="0" Segmented="0" Path="32.................H....T.....B....E....7....."/><InfoObj ID="16.6....3C.........A....." Updated="0" Segmented="0" Path="32.................V....jB...fE....o....vB...."/></PlugDataInfo>;
#X coords 0 1 100 -1 1 1 1;
#X restore 0 0 graph;
#X obj 545 71 print freq;
#X obj 631 74 print q;
#X obj 181 412 + 1;
#X obj 173 518 spigot;
#X obj 244 519 spigot;
#X obj 198 489 <= 1;
#X obj 269 487 > 1, f 4;
#X obj 245 548 *;
#X obj 885 409 + 1;
#X obj 877 515 spigot;
#X obj 948 516 spigot;
#X obj 902 486 <= 1;
#X obj 973 484 > 1, f 4;
#X obj 949 545 *;
#X obj 556 330 + 1;
#X obj 548 436 spigot;
#X obj 619 437 spigot;
#X obj 573 407 <= 1;
#X obj 644 405 > 1, f 4;
#X obj 620 466 *;
#X obj 811 327 hv.filter allpass 20 0.2;
#X obj 131 304 hv.filter allpass 20 0.2;
#X obj 132 189 hv.filter highpass 1337 0.3;
#X obj 812 183 hv.filter lowpass 1037 0.4;
#X obj 613 801 hv.filter lowpass 48000 0.55;
#X obj 613 698 hv.filter highpass 20 0.45;
#X obj 131 271 hv.filter allpass 48000 0.12;
#X obj 811 291 hv.filter allpass 48000 0.12;
#X obj 698 770 r srate;
#X obj 206 233 r srate;
#X obj 891 244 r srate;
#X obj 502 527 + 0.08;
#X obj 803 63 samplerate~;
#X obj 804 97 s srate;
#X obj 803 29 loadbang;
#X obj 1265 72 t a;
#X obj 1265 44 inlet;
#X obj 1265 169 hv.dispatch \$0 midfreq 1337;
#X obj 1265 135 hv.dispatch \$0 midvol 0.5;
#X obj 1265 99 hv.dispatch \$0 highvol 0.5;
#X obj 1265 202 hv.dispatch \$0 lowvol 0.5;
#X obj 1265 237 hv.dispatch \$0 midq 0.4;
#X obj 556 299 r \$0mid-vol;
#X obj 547 29 r \$0-midfreq;
#X obj 639 29 r \$0-midq;
#X obj 181 383 r \$0-highvol;
#X obj 885 375 r \$0-lowvol;
#X connect 0 0 8 0;
#X connect 0 0 38 0;
#X connect 0 0 39 0;
#X connect 5 0 9 0;
#X connect 6 0 10 0;
#X connect 7 0 11 0;
#X connect 8 0 13 0;
#X connect 12 0 41 0;
#X connect 13 0 14 0;
#X connect 14 0 6 0;
#X connect 18 0 19 0;
#X connect 18 0 20 0;
#X connect 18 0 21 0;
#X connect 18 0 22 0;
#X connect 19 0 5 1;
#X connect 20 0 23 0;
#X connect 20 0 23 1;
#X connect 21 0 19 1;
#X connect 22 0 20 1;
#X connect 23 0 5 1;
#X connect 24 0 25 0;
#X connect 24 0 26 0;
#X connect 24 0 27 0;
#X connect 24 0 28 0;
#X connect 25 0 7 1;
#X connect 26 0 29 0;
#X connect 26 0 29 1;
#X connect 27 0 25 1;
#X connect 28 0 26 1;
#X connect 29 0 7 1;
#X connect 30 0 31 0;
#X connect 30 0 32 0;
#X connect 30 0 33 0;
#X connect 30 0 34 0;
#X connect 31 0 47 0;
#X connect 32 0 35 0;
#X connect 32 0 35 1;
#X connect 33 0 31 1;
#X connect 34 0 32 1;
#X connect 35 0 47 0;
#X connect 36 0 7 0;
#X connect 37 0 5 0;
#X connect 38 0 42 0;
#X connect 39 0 43 0;
#X connect 40 0 1 0;
#X connect 41 0 40 0;
#X connect 42 0 37 0;
#X connect 43 0 36 0;
#X connect 44 0 40 1;
#X connect 45 0 42 1;
#X connect 46 0 43 1;
#X connect 47 0 6 1;
#X connect 48 0 49 0;
#X connect 50 0 48 0;
#X connect 51 0 55 0;
#X connect 52 0 51 0;
#X connect 53 0 56 0;
#X connect 54 0 53 0;
#X connect 55 0 54 0;
#X connect 56 0 57 0;
#X connect 58 0 30 0;
#X connect 59 0 16 0;
#X connect 59 0 8 1;
#X connect 60 0 17 0;
#X connect 60 0 8 2;
#X connect 61 0 18 0;
#X connect 62 0 24 0;
