#N canvas 827 239 527 327 12;
#N canvas 0 50 450 250 (subpatch) 0;
#X text 0 0 plugdatainfo <?xml version="1.0" encoding="UTF-8"?> <plugdatainfo/>;
#X coords 0 1 100 -1 1 1 1;
#X restore 0 0 graph;
#X obj 477 17 inlet~;
#X text 910 156 lowpass;
#X text 236 156 highpass;
#X text 585 156 midrange;
#X obj 134 593 *~;
#X obj 478 593 *~;
#X obj 818 593 *~;
#X obj 477 189 hv.filter bandpass2 1337 0.4;
#X obj 173 498 spigot;
#X obj 244 499 spigot;
#X obj 198 469 <= 1;
#X obj 269 467 > 1, f 4;
#X obj 245 528 *;
#X obj 850 499 spigot;
#X obj 921 500 spigot;
#X obj 875 470 <= 1;
#X obj 946 468 > 1, f 4;
#X obj 922 529 *;
#X obj 512 498 spigot;
#X obj 583 499 spigot;
#X obj 537 469 <= 1;
#X obj 608 467 > 1, f 4;
#X obj 584 528 *;
#X obj 134 192 hv.filter highpass 1337 0.3;
#X obj 134 630 outlet~;
#X obj 478 630 outlet~;
#X obj 1168 94 t a;
#X obj 1168 66 inlet;
#X obj 564 121 r \$0-midfreq;
#X obj 651 154 r \$0-midq;
#X obj 181 342 r \$0-highvol;
#X obj 858 359 r \$0-lowvol;
#X obj 818 630 outlet~;
#X obj 520 362 r \$0-midvol;
#X obj 181 392 * 2;
#X obj 520 392 * 2;
#X obj 858 393 * 2;
#X obj 1168 191 hv.dispatch \$0 midfreq 1337;
#X obj 1168 157 hv.dispatch \$0 midvol 0.5;
#X obj 1168 121 hv.dispatch \$0 highvol 0.5;
#X obj 814 186 hv.filter lowpass 1037 0.4;
#X obj 1168 224 hv.dispatch \$0 lowvol 0.5;
#X obj 1168 259 hv.dispatch \$0 midq 0.4;
#X connect 1 0 8 0;
#X connect 1 0 24 0;
#X connect 1 0 41 0;
#X connect 5 0 25 0;
#X connect 6 0 26 0;
#X connect 7 0 33 0;
#X connect 8 0 6 0;
#X connect 9 0 5 1;
#X connect 10 0 13 0;
#X connect 10 0 13 1;
#X connect 11 0 9 1;
#X connect 12 0 10 1;
#X connect 13 0 5 1;
#X connect 14 0 7 1;
#X connect 15 0 18 0;
#X connect 15 0 18 1;
#X connect 16 0 14 1;
#X connect 17 0 15 1;
#X connect 18 0 7 1;
#X connect 19 0 6 1;
#X connect 20 0 23 0;
#X connect 20 0 23 1;
#X connect 21 0 19 1;
#X connect 22 0 20 1;
#X connect 23 0 6 1;
#X connect 24 0 5 0;
#X connect 27 0 40 0;
#X connect 28 0 27 0;
#X connect 29 0 8 1;
#X connect 30 0 8 2;
#X connect 31 0 35 0;
#X connect 32 0 37 0;
#X connect 34 0 36 0;
#X connect 35 0 9 0;
#X connect 35 0 10 0;
#X connect 35 0 11 0;
#X connect 35 0 12 0;
#X connect 36 0 19 0;
#X connect 36 0 20 0;
#X connect 36 0 21 0;
#X connect 36 0 22 0;
#X connect 37 0 14 0;
#X connect 37 0 15 0;
#X connect 37 0 16 0;
#X connect 37 0 17 0;
#X connect 38 0 42 0;
#X connect 39 0 38 0;
#X connect 40 0 39 0;
#X connect 41 0 7 0;
#X connect 42 0 43 0;
