#N canvas 827 239 527 327 12;
#N canvas 0 50 450 250 (subpatch) 0;
#X text 0 0 plugdatainfo <?xml version="1.0" encoding="UTF-8"?> <plugdatainfo/>;
#X coords 0 1 100 -1 1 1 1;
#X restore 0 0 graph;
#X obj 239 81 inlet;
#X obj 239 383 outlet;
#X obj 282 176 f 5705.6;
#X obj 387 176 f 313.3;
#X obj 239 112 t f b b;
#X obj 239 253 /;
#X obj 304 253 /;
#X obj 239 300 log;
#X obj 304 300 log;
#X obj 239 344 /;
#X text 387 299 x = ln( q / min ) / ln( max / min ), f 26;
#X connect 1 0 5 0;
#X connect 3 0 7 0;
#X connect 4 0 6 1;
#X connect 4 0 7 1;
#X connect 5 0 6 0;
#X connect 5 1 3 0;
#X connect 5 2 4 0;
#X connect 6 0 8 0;
#X connect 7 0 9 0;
#X connect 8 0 10 0;
#X connect 9 0 10 1;
#X connect 10 0 2 0;
