#N canvas 827 239 527 327 12;
#N canvas 0 50 450 250 (subpatch) 0;
#X text 0 0 plugdatainfo <?xml version="1.0" encoding="UTF-8"?> <plugdatainfo/>;
#X coords 0 1 100 -1 1 1 1;
#X restore 0 0 graph;
#X obj 293 174 - 1;
#X obj 293 145 * 2;
#X obj 293 261 t b f;
#X obj 293 332 +;
#X obj 293 232 abs;
#X obj 293 105 inlet;
#X obj 293 377 outlet;
#X obj 293 203 * 0.3;
#X obj 293 303 f 0.313;
#X connect 1 0 8 0;
#X connect 2 0 1 0;
#X connect 3 0 9 0;
#X connect 3 1 4 1;
#X connect 4 0 7 0;
#X connect 5 0 3 0;
#X connect 6 0 2 0;
#X connect 8 0 5 0;
#X connect 9 0 4 0;
