#N canvas 827 239 527 327 12;
#N canvas 0 50 450 250 (subpatch) 0;
#X text 0 0 plugdatainfo <?xml version="1.0" encoding="UTF-8"?> <plugdatainfo/>;
#X coords 0 1 100 -1 1 1 1;
#X restore 0 0 graph;
#X obj 71 173 adc~;
#X obj 80 558 dac~;
#X obj 71 326 eq_pass, f 23;
#X obj 71 363 throw~ bla;
#X obj 142 400 throw~ bla;
#X obj 213 428 throw~ bla;
#X obj 80 497 catch~ bla;
#X obj 210 129 hsl 128 17 -15 15 0 0 empty empty empty -2 -8 0 10 #191919 #ffffff #ffffff 0 1;
#X msg 210 154 highvol \$1, f 11;
#X obj 323 154 hsl 128 17 -15 15 0 0 empty empty empty -2 -8 0 10 #191919 #ffffff #ffffff 0 1;
#X msg 323 179 midvol \$1, f 11;
#X obj 382 216 hsl 128 17 -15 15 0 0 empty empty empty -2 -8 0 10 #191919 #ffffff #ffffff 0 1;
#X msg 382 241 lowvol \$1, f 11;
#X obj 557 187 hsl 128 17 0 1 0 0 empty empty empty -2 -8 0 10 #191919 #ffffff #ffffff 0 1;
#X msg 557 248 midfreq \$1, f 12;
#X obj 557 212 eqmidfactor;
#X obj 668 248 eqmidq;
#X obj 668 276 qcalc;
#X msg 668 304 midq \$1, f 9;
#X obj 351 70 t f f f b;
#X msg 557 154 0.5, f 6;
#X msg 351 40 0, f 5;
#X obj 532 40 loadbang;
#X connect 1 0 3 0;
#X connect 3 0 4 0;
#X connect 3 1 5 0;
#X connect 3 2 6 0;
#X connect 7 0 2 0;
#X connect 8 0 9 0;
#X connect 9 0 3 1;
#X connect 10 0 11 0;
#X connect 11 0 3 1;
#X connect 12 0 13 0;
#X connect 13 0 3 1;
#X connect 14 0 16 0;
#X connect 15 0 3 1;
#X connect 16 0 15 0;
#X connect 16 0 17 0;
#X connect 17 0 18 0;
#X connect 18 0 19 0;
#X connect 19 0 3 1;
#X connect 20 0 8 0;
#X connect 20 1 10 0;
#X connect 20 2 12 0;
#X connect 20 3 21 0;
#X connect 21 0 14 0;
#X connect 22 0 20 0;
#X connect 23 0 22 0;
