#N canvas 827 239 527 327 12;
#N canvas 0 50 450 250 (subpatch) 0;
#X text 0 0 plugdatainfo <?xml version="1.0" encoding="UTF-8"?> <plugdatainfo/>;
#X coords 0 1 100 -1 1 1 1;
#X restore 0 0 graph;
#X obj 302 191 adc~;
#X obj 360 665 dac~;
#X obj 302 381 throw~ bla;
#X obj 373 418 throw~ bla;
#X obj 444 446 throw~ bla;
#X obj 314 495 catch~ bla;
#X obj 454 147 hsl 128 17 0 1 0 0 empty empty empty -2 -8 0 10 #191919 #ffffff #ffffff 0 1;
#X msg 454 227 highvol \$1, f 11;
#X obj 588 180 hsl 128 17 0 1 0 0 empty empty empty -2 -8 0 10 #191919 #ffffff #ffffff 0 1;
#X msg 588 205 midvol \$1, f 11;
#X obj 751 191 hsl 128 17 0 1 0 0 empty empty empty -2 -8 0 10 #191919 #ffffff #ffffff 0 1;
#X obj 302 344 eq_shelf, f 23;
#X obj 454 172 * 48;
#X obj 454 201 - 24;
#X obj 751 221 * 48;
#X obj 751 250 - 24;
#X msg 751 277 lowvol \$1, f 11;
#X obj 473 578 hv.filter.gain lowshelf 337 0.4;
#X msg 627 80 0.5, f 5;
#X obj 437 504 hv.filter.gain highshelf 7777 0.3;
#X connect 1 0 12 0;
#X connect 6 0 2 0;
#X connect 7 0 13 0;
#X connect 8 0 12 1;
#X connect 9 0 10 0;
#X connect 10 0 12 1;
#X connect 11 0 15 0;
#X connect 12 0 3 0;
#X connect 12 1 4 0;
#X connect 12 2 5 0;
#X connect 13 0 14 0;
#X connect 14 0 8 0;
#X connect 14 0 20 3;
#X connect 15 0 16 0;
#X connect 16 0 17 0;
#X connect 16 0 18 3;
#X connect 17 0 12 1;
#X connect 18 0 2 0;
#X connect 19 0 7 0;
#X connect 19 0 9 0;
#X connect 19 0 11 0;
#X connect 20 0 2 0;
