#N canvas 494 209 1199 625 12;
#X declare -path dep/;
#X obj 192 343 adc~;
#X obj 458 143 hsl 128 17 -15 15 0 0 empty empty empty -2 -8 0 10 -24967
-262144 -262144 6350 1;
#X msg 458 168 highvol \$1, f 11;
#X obj 458 277 hsl 128 17 -15 15 0 0 empty empty empty -2 -8 0 10 -24967
-262144 -262144 6350 1;
#X msg 458 302 midvol \$1, f 11;
#X obj 456 464 hsl 128 17 -15 15 0 0 empty empty empty -2 -8 0 10 -24967
-262144 -262144 6350 1;
#X msg 456 489 lowvol \$1, f 11;
#X msg 701 314 midfreq \$1, f 12;
#X msg 812 370 midq \$1, f 9;
#X obj 458 110 r High @hv_param -15 15 0 db;
#X obj 458 246 r Mid @hv_param -15 15 0 db;
#X obj 456 432 r Low @hv_param -15 15 0 db;
#X obj 701 273 hsl 128 17 313.3 5705.6 1 0 empty empty empty -2 -8
0 10 -1 -262144 -91543 6350 1;
#N canvas 523 290 995 434 stereo_eq_pass 0;
#X obj 292 123 inlet~;
#X obj 433 123 inlet~;
#X obj 649 130 inlet;
#X obj 292 190 wstd.cmpnnts/eq_pass, f 23;
#X obj 653 195 wstd.cmpnnts/eq_pass, f 23;
#X obj 256 321 outlet~;
#X obj 559 326 outlet~;
#X obj 339 321 outlet~;
#X obj 721 332 outlet~;
#X obj 458 326 outlet~;
#X obj 818 332 outlet~;
#X connect 0 0 3 0;
#X connect 1 0 4 0;
#X connect 2 0 3 1;
#X connect 2 0 4 1;
#X connect 3 0 5 0;
#X connect 3 1 9 0;
#X connect 3 2 8 0;
#X connect 4 0 7 0;
#X connect 4 1 6 0;
#X connect 4 2 10 0;
#X restore 192 388 pd stereo_eq_pass;
#X obj 686 141 loadbang;
#X msg 734 179 1337, f 7;
#X msg 686 179 0, f 5;
#X obj 812 314 wstd.cmpnnts/eqmidq;
#X obj 812 342 wstd.cmpnnts/qcalc;
#X obj 701 242 r Mid_Freq @hv_param 313.3 5705.6 1337 log_hz;
#X obj 192 432 dac~ 1 2 3 4 5 6;
#X obj 195 526 declare -path dep/;
#X connect 0 0 13 0;
#X connect 0 1 13 1;
#X connect 1 0 2 0;
#X connect 2 0 13 2;
#X connect 3 0 4 0;
#X connect 4 0 13 2;
#X connect 5 0 6 0;
#X connect 6 0 13 2;
#X connect 7 0 13 2;
#X connect 8 0 13 2;
#X connect 9 0 1 0;
#X connect 10 0 3 0;
#X connect 11 0 5 0;
#X connect 12 0 7 0;
#X connect 12 0 17 0;
#X connect 13 0 20 0;
#X connect 13 1 20 1;
#X connect 13 2 20 2;
#X connect 13 3 20 3;
#X connect 13 4 20 4;
#X connect 13 5 20 5;
#X connect 14 0 16 0;
#X connect 14 0 15 0;
#X connect 15 0 12 0;
#X connect 16 0 1 0;
#X connect 16 0 3 0;
#X connect 16 0 5 0;
#X connect 17 0 18 0;
#X connect 18 0 8 0;
#X connect 19 0 12 0;
